<svg width="138" height="30" viewBox="0 0 138 30" fill="none" xmlns="http://www.w3.org/2000/svg">
  <path fill-rule="evenodd" clip-rule="evenodd" d="M122.544 22.4257C122.544 15 122.544 14.8515 115.126 14.8515C115.126 7.27723 115.272 7.27723 122.544 7.27723C129.815 7.27723 129.961 7.27723 129.961 14.8515C129.961 22.2772 129.961 22.4257 122.544 22.4257ZM122.544 0C114.51 0 108 6.6505 108 14.8515C108 23.0554 114.51 29.703 122.544 29.703C130.574 29.703 137.087 23.0554 137.087 14.8515C137.087 6.6505 130.574 0 122.544 0Z" fill="black"/>
  <path fill-rule="evenodd" clip-rule="evenodd" d="M21.8153 22.2772L24.4061 24.9229C24.6423 25.1641 24.6283 25.5549 24.3828 25.7857C21.7952 28.2175 18.3394 29.703 14.5435 29.703C10.5266 29.703 6.89072 28.0396 4.25834 25.3515C1.62597 22.6634 0 18.9505 0 14.8515C0 10.7525 1.62597 7.0396 4.25834 4.35149H4.26125C6.89363 1.66337 10.5295 0 14.5435 0C18.3397 0 21.7955 1.48545 24.3831 3.91752C24.6286 4.14832 24.6425 4.53891 24.4064 4.7795L21.3735 7.87663C21.1829 8.07149 20.8836 8.11158 20.6576 7.96099C19.6314 7.27723 17.803 7.27723 14.5435 7.27723C10.8756 7.27723 9.01989 7.27723 8.08038 8.25148C7.16414 9.20792 7.12633 11.1 7.12633 14.8515C7.12633 18.597 7.12633 20.4921 8.08038 21.4485C9.01408 22.3901 10.8698 22.4257 14.5435 22.4257C17.8045 22.4257 19.6332 22.3975 20.6553 21.7313C20.8807 21.5843 21.1765 21.625 21.3656 21.818L21.8153 22.2772Z" fill="black"/>
  <path fill-rule="evenodd" clip-rule="evenodd" d="M78.3615 1.59406V7.68317C78.3615 8.01287 78.1026 8.27723 77.7797 8.27723H76.5435C72.8698 8.27723 71.017 8.27723 70.0833 9.25446C69.1612 10.2109 69.1263 12.103 69.1263 15.8515V28.8703C69.1263 29.197 68.8675 29.4644 68.5446 29.4644H62.5817C62.2615 29.4644 62 29.197 62 28.8703V1.59406C62 1.26436 62.2615 1 62.5817 1H68.5446C68.8675 1 69.1263 1.26436 69.1263 1.59406V3.07327C71.2962 1.75743 73.8326 1 76.5435 1H77.7797C78.1026 1 78.3615 1.26733 78.3615 1.59406Z" fill="black"/>
  <path fill-rule="evenodd" clip-rule="evenodd" d="M48.0038 21.4485C47.0701 22.3901 45.214 22.4257 41.5435 22.4257C37.8727 22.4257 36.017 22.3901 35.0833 21.4485C34.1263 20.4951 34.1263 18.603 34.1263 14.8515C34.1263 11.1 34.1641 9.20792 35.0801 8.25148C36.0199 7.27723 37.8756 7.27723 41.5435 7.27723C45.2172 7.27723 47.0701 7.27723 48.0067 8.25446C48.9226 9.21089 48.9607 11.103 48.9607 14.8515C48.9607 18.603 48.9607 20.4951 48.0038 21.4485ZM51.8284 4.35149H51.8258C49.1934 1.66337 45.5575 0 41.5435 0C37.5263 0 33.8904 1.66337 31.261 4.35149C28.6289 7.0396 27 10.7525 27 14.8515C27 18.9505 28.6289 22.6634 31.261 25.3515C33.8904 28.0396 37.5263 29.703 41.5435 29.703C45.5575 29.703 49.1934 28.0396 51.8258 25.3515C54.4579 22.6663 56.087 18.9535 56.087 14.8515C56.087 10.7525 54.4608 7.0396 51.8284 4.35149Z" fill="black"/>
  <path fill-rule="evenodd" clip-rule="evenodd" d="M101.815 22.2772L104.826 25.3515C102.196 28.0396 98.5604 29.703 94.5435 29.703C90.5266 29.703 86.8907 28.0396 84.2583 25.3515C81.626 22.6634 80 18.9505 80 14.8515C80 10.7525 81.626 7.0396 84.2583 4.35149H84.2613C86.8936 1.66337 90.5295 0 94.5435 0C98.5604 0 102.196 1.66337 104.826 4.35149L101.007 8.25148C100.067 7.27723 98.2114 7.27723 94.5435 7.27723C90.8756 7.27723 89.0199 7.27723 88.0804 8.25148C87.1641 9.20792 87.1263 11.1 87.1263 14.8515C87.1263 18.597 87.1263 20.4921 88.0804 21.4485C89.0141 22.3901 90.8698 22.4257 94.5435 22.4257C98.2143 22.4257 100.07 22.3901 101.004 21.4485L101.815 22.2772Z" fill="black"/>
</svg>
