<?xml version="1.0" encoding="UTF-8"?>
<svg width="84px" height="39px" viewBox="0 0 84 39" version="1.1" xmlns="http://www.w3.org/2000/svg" xmlns:xlink="http://www.w3.org/1999/xlink">
    <!-- Generator: Sketch 42 (36781) - http://www.bohemiancoding.com/sketch -->
    <title>logo/color-lightv1.0</title>
    <desc>Created with Sketch.</desc>
    <defs>
        <linearGradient x1="50%" y1="0%" x2="50%" y2="100%" id="linearGradient-1">
            <stop stop-color="#F6B352" offset="0%"></stop>
            <stop stop-color="#F6A454" offset="33.5270355%"></stop>
            <stop stop-color="#F68657" offset="100%"></stop>
        </linearGradient>
        <linearGradient x1="50%" y1="0%" x2="50%" y2="100%" id="linearGradient-2">
            <stop stop-color="#F6B352" offset="0%"></stop>
            <stop stop-color="#F69955" offset="59.0183155%"></stop>
            <stop stop-color="#F68657" offset="100%"></stop>
        </linearGradient>
        <linearGradient x1="50%" y1="0%" x2="50%" y2="100%" id="linearGradient-3">
            <stop stop-color="#F6B352" offset="0%"></stop>
            <stop stop-color="#F68657" offset="100%"></stop>
        </linearGradient>
    </defs>
    <g id="Symbols" stroke="none" stroke-width="1" fill="none" fill-rule="evenodd">
        <g id="logo/color-light">
            <g id="Ignite-Logo" transform="translate(3.000000, 4.000000)">
                <g id="Ignite-Logo-">
                    <path d="M4.152,0.593 C4.151,0.593 4.148,0.594 4.146,0.594 L4.146,0.594 L4.146,0.594 L4.146,0.594 L4.145,0.594 L4.145,0.594 L4.145,0.594 L4.145,0.594 C4.144,0.594 4.144,0.593 4.143,0.593 L4.143,0.593 C3.972,0.604 3.804,0.623 3.633,0.651 L3.633,0.651 C3.544,0.667 3.458,0.686 3.373,0.705 L3.373,0.705 C3.202,0.746 3.034,0.795 2.87,0.851 L2.87,0.851 C2.787,0.883 2.705,0.914 2.623,0.948 L2.623,0.948 C2.54,0.985 2.459,1.02 2.379,1.061 L2.379,1.061 C2.316,1.092 2.254,1.126 2.192,1.161 L2.192,1.161 C2.067,1.232 1.946,1.307 1.827,1.388 L1.827,1.388 C1.738,1.451 1.649,1.52 1.563,1.585 L1.563,1.585 C1.481,1.657 1.399,1.729 1.32,1.803 L1.32,1.803 C1.241,1.879 1.165,1.957 1.09,2.035 L1.09,2.035 C1.02,2.116 0.948,2.2 0.883,2.285 L0.883,2.285 C0.797,2.396 0.718,2.512 0.642,2.631 L0.642,2.631 C0.605,2.69 0.573,2.75 0.537,2.809 L0.537,2.809 C0.471,2.93 0.412,3.055 0.356,3.18 L0.356,3.18 C0.313,3.28 0.277,3.38 0.244,3.48 L0.244,3.48 C0.218,3.555 0.195,3.633 0.174,3.711 L0.174,3.711 C0.168,3.736 0.162,3.761 0.156,3.786 L0.156,3.786 C0.132,3.871 0.116,3.958 0.1,4.045 L0.1,4.045 C0.1,4.051 0.096,4.054 0.096,4.061 L0.096,4.061 C0.063,4.245 0.047,4.432 0.04,4.623 L0.04,4.623 C0.04,4.632 0.04,4.638 0.037,4.647 L0.037,4.647 C0.037,4.679 0.034,4.71 0.034,4.742 L0.034,4.742 L0.034,26.434 C0.034,26.986 0.146,27.512 0.356,27.992 L0.356,27.992 C0.412,28.117 0.471,28.242 0.537,28.363 L0.537,28.363 C0.573,28.423 0.605,28.482 0.642,28.541 L0.642,28.541 C0.652,28.556 0.661,28.571 0.671,28.586 L0.671,28.586 C0.738,28.689 0.808,28.789 0.883,28.888 L0.883,28.888 C0.948,28.973 1.02,29.056 1.09,29.137 L1.09,29.137 C1.165,29.215 1.241,29.294 1.32,29.368 L1.32,29.368 C1.399,29.443 1.481,29.515 1.563,29.587 L1.563,29.587 C1.649,29.653 1.738,29.721 1.827,29.784 L1.827,29.784 C1.946,29.865 2.067,29.94 2.192,30.012 L2.192,30.012 C2.254,30.046 2.316,30.08 2.379,30.112 L2.379,30.112 C2.445,30.143 2.511,30.174 2.577,30.203 L2.577,30.203 C2.642,30.231 2.712,30.259 2.778,30.284 L2.778,30.284 C2.84,30.308 2.906,30.331 2.972,30.352 L2.972,30.352 C3.044,30.377 3.119,30.399 3.192,30.418 L3.192,30.418 C3.232,30.43 3.268,30.439 3.307,30.449 L3.307,30.449 C3.406,30.476 3.508,30.496 3.607,30.514 L3.607,30.514 C3.669,30.524 3.732,30.537 3.794,30.542 L3.794,30.542 C3.834,30.548 3.873,30.555 3.916,30.558 L3.916,30.558 C3.955,30.561 3.995,30.565 4.037,30.567 L4.037,30.567 C4.067,30.571 4.098,30.571 4.126,30.574 L4.126,30.574 C4.15,30.574 4.169,30.577 4.192,30.577 L4.192,30.577 C4.215,30.577 4.242,30.58 4.265,30.58 L4.265,30.58 C4.331,30.583 4.396,30.586 4.462,30.586 L4.462,30.586 C4.488,30.586 4.518,30.586 4.545,30.583 L4.545,30.583 C4.571,30.583 4.601,30.583 4.629,30.58 L4.629,30.58 C4.69,30.58 4.752,30.574 4.811,30.571 L4.811,30.571 C4.89,30.565 4.966,30.555 5.044,30.542 L5.044,30.542 C5.114,30.537 5.183,30.524 5.252,30.512 L5.252,30.512 C5.423,30.48 5.594,30.436 5.765,30.386 L5.765,30.386 C5.933,30.333 6.101,30.274 6.262,30.203 L6.262,30.203 C6.308,30.18 6.35,30.161 6.397,30.14 L6.397,30.14 C6.574,30.053 6.745,29.956 6.914,29.846 L6.914,29.846 C6.956,29.818 6.995,29.793 7.035,29.762 L7.035,29.762 C7.203,29.643 7.365,29.512 7.516,29.368 L7.516,29.368 L18.942,18.523 C19.798,17.712 20.225,16.649 20.225,15.585 L20.225,15.585 C20.225,14.522 19.798,13.459 18.942,12.648 L18.942,12.648 L7.516,1.803 C7.365,1.66 7.203,1.529 7.035,1.41 L7.035,1.41 C6.995,1.379 6.956,1.354 6.914,1.326 L6.914,1.326 C6.745,1.216 6.574,1.12 6.397,1.033 L6.397,1.033 C6.35,1.011 6.308,0.992 6.262,0.97 L6.262,0.97 C6.101,0.898 5.933,0.839 5.765,0.786 L5.765,0.786 C5.594,0.736 5.423,0.692 5.252,0.661 L5.252,0.661 C4.976,0.611 4.696,0.587 4.416,0.587 L4.416,0.587 C4.331,0.587 4.242,0.589 4.152,0.593" id="Back" fill="url(#linearGradient-1)"></path>
                    <path d="M0.034,7.35995755 L0.0339999979,7.35995755 C0.0839730362,7.31483546 0.134796227,7.27041773 0.186,7.226 C0.271,7.161 0.36,7.092 0.449,7.03 C0.568,6.949 0.689,6.874 0.814,6.802 C0.877,6.767 0.939,6.733 1.002,6.702 C1.081,6.661 1.163,6.627 1.246,6.59 C1.328,6.555 1.41,6.524 1.492,6.493 C1.657,6.437 1.825,6.387 1.996,6.346 C2.081,6.327 2.166,6.309 2.255,6.293 C2.427,6.265 2.594,6.246 2.766,6.234 C2.769,6.237 2.772,6.234 2.775,6.234 C2.864,6.231 2.953,6.227 3.038,6.227 C3.318,6.227 3.598,6.253 3.874,6.303 C4.045,6.334 4.216,6.377 4.388,6.428 C4.555,6.48 4.723,6.54 4.884,6.612 C4.931,6.634 4.973,6.652 5.019,6.674 C5.197,6.762 5.368,6.858 5.536,6.968 C5.579,6.995 5.618,7.02 5.658,7.052 C5.825,7.17 5.987,7.302 6.138,7.445 L17.565,18.29 C17.8460295,18.5560829 18.0809002,18.8494671 18.2696123,19.1611975 L7.516,29.368 C7.365,29.512 7.203,29.643 7.035,29.762 C6.995,29.793 6.956,29.818 6.914,29.846 C6.745,29.956 6.574,30.053 6.397,30.14 C6.35,30.161 6.308,30.18 6.262,30.203 C6.101,30.274 5.933,30.333 5.765,30.386 C5.594,30.436 5.423,30.48 5.252,30.512 C5.183,30.524 5.114,30.537 5.044,30.542 C4.966,30.555 4.89,30.565 4.811,30.571 C4.752,30.574 4.69,30.58 4.629,30.58 C4.601,30.583 4.571,30.583 4.545,30.583 C4.518,30.586 4.488,30.586 4.462,30.586 C4.396,30.586 4.331,30.583 4.265,30.58 C4.242,30.58 4.215,30.577 4.192,30.577 C4.169,30.577 4.15,30.574 4.126,30.574 C4.098,30.571 4.067,30.571 4.037,30.567 C3.995,30.565 3.955,30.561 3.916,30.558 C3.873,30.555 3.834,30.548 3.794,30.542 C3.732,30.537 3.669,30.524 3.607,30.514 C3.508,30.496 3.406,30.476 3.307,30.449 C3.268,30.439 3.232,30.43 3.192,30.418 C3.119,30.399 3.044,30.377 2.972,30.352 C2.906,30.331 2.84,30.308 2.778,30.284 C2.712,30.259 2.642,30.231 2.577,30.203 C2.511,30.174 2.445,30.143 2.379,30.112 C2.316,30.08 2.254,30.046 2.192,30.012 C2.067,29.94 1.946,29.865 1.827,29.784 C1.738,29.721 1.649,29.653 1.563,29.587 C1.481,29.515 1.399,29.443 1.32,29.368 C1.241,29.294 1.165,29.215 1.09,29.137 C1.02,29.056 0.948,28.973 0.883,28.888 C0.797,28.775 0.718,28.66 0.642,28.541 C0.605,28.482 0.573,28.423 0.537,28.363 C0.471,28.242 0.412,28.117 0.356,27.992 C0.146,27.512 0.034,26.986 0.034,26.434 L0.034,7.35995755 Z" id="Middle" fill="url(#linearGradient-2)" style="mix-blend-mode: screen;" opacity="0.676007699"></path>
                    <path d="M0.034,12.6474844 C0.0751811633,12.6225532 0.116810289,12.5981084 0.159,12.574 C0.221,12.54 0.284,12.506 0.346,12.474 C0.425,12.434 0.507,12.4 0.589,12.362 C0.672,12.328 0.754,12.297 0.836,12.265 C1.001,12.209 1.168,12.159 1.34,12.118 C1.425,12.1 1.511,12.081 1.6,12.066 C1.77,12.037 1.938,12.019 2.109,12.006 C2.113,12.01 2.116,12.006 2.12,12.006 C2.208,12.003 2.297,12 2.383,12 C2.662,12 2.942,12.025 3.218,12.075 C3.39,12.106 3.56,12.15 3.731,12.2 C3.899,12.253 4.067,12.312 4.228,12.384 C4.274,12.406 4.317,12.425 4.363,12.447 C4.541,12.534 4.712,12.631 4.88,12.74 C4.923,12.768 4.962,12.793 5.001,12.824 C5.169,12.943 5.33,13.074 5.482,13.218 L15.0074585,22.2574742 L7.516,29.368 C7.365,29.512 7.203,29.643 7.035,29.762 C6.995,29.793 6.956,29.818 6.914,29.846 C6.745,29.956 6.574,30.053 6.397,30.14 C6.35,30.161 6.308,30.18 6.262,30.203 C6.101,30.274 5.933,30.333 5.765,30.386 C5.594,30.436 5.423,30.48 5.252,30.512 C5.183,30.524 5.114,30.537 5.044,30.542 C4.966,30.555 4.89,30.565 4.811,30.571 C4.752,30.574 4.69,30.58 4.629,30.58 C4.601,30.583 4.571,30.583 4.545,30.583 C4.518,30.586 4.488,30.586 4.462,30.586 C4.396,30.586 4.331,30.583 4.265,30.58 C4.242,30.58 4.215,30.577 4.192,30.577 C4.169,30.577 4.15,30.574 4.126,30.574 C4.098,30.571 4.067,30.571 4.037,30.567 C3.995,30.565 3.955,30.561 3.916,30.558 C3.873,30.555 3.834,30.548 3.794,30.542 C3.732,30.537 3.669,30.524 3.607,30.514 C3.508,30.496 3.406,30.476 3.307,30.449 C3.268,30.439 3.232,30.43 3.192,30.418 C3.119,30.399 3.044,30.377 2.972,30.352 C2.906,30.331 2.84,30.308 2.778,30.284 C2.712,30.259 2.642,30.231 2.577,30.203 C2.511,30.174 2.445,30.143 2.379,30.112 C2.316,30.08 2.254,30.046 2.192,30.012 C2.067,29.94 1.946,29.865 1.827,29.784 C1.738,29.721 1.649,29.653 1.563,29.587 C1.481,29.515 1.399,29.443 1.32,29.368 C1.241,29.294 1.165,29.215 1.09,29.137 C1.02,29.056 0.948,28.973 0.883,28.888 C0.797,28.775 0.718,28.66 0.642,28.541 C0.605,28.482 0.573,28.423 0.537,28.363 C0.471,28.242 0.412,28.117 0.356,27.992 C0.146,27.512 0.034,26.986 0.034,26.434 L0.034,12.6474844 L0.034,12.6474844 Z" id="Front" fill="url(#linearGradient-3)" style="mix-blend-mode: screen;"></path>
                </g>
                <g id="Ignite-Logo-Text" transform="translate(22.000000, 1.000000)" font-size="22" font-family="Roboto-Black, Roboto" letter-spacing="0.03" fill="#FFFFFF" font-weight="700">
                    <text id="ignite">
                        <tspan x="0" y="23">ignite</tspan>
                    </text>
                </g>
            </g>
        </g>
    </g>
</svg>