<svg xmlns="http://www.w3.org/2000/svg" width="59" height="22" viewBox="0 0 59 22">
    <path fill="#FFFDF1" fill-rule="evenodd" d="M4 17H0V5h4v12zM0 2C0 1.415.185.935.556.561.926.187 1.408 0 2 0s1.073.187 1.444.561C3.814.935 4 1.415 4 2c0 .585-.185 1.065-.556 1.439C3.074 3.813 2.592 4 2 4S.927 3.813.556 3.439C.186 3.065 0 2.585 0 2zm6 9.152c0-1.216.21-2.291.632-3.226.42-.935 1.025-1.656 1.812-2.164C9.232 5.254 10.148 5 11.193 5c1.318 0 2.347.423 3.088 1.268l.14-1.045H18v11.581c0 1.061-.26 1.983-.778 2.765-.518.783-1.269 1.383-2.251 1.802-.983.42-2.121.629-3.415.629a7.46 7.46 0 0 1-2.696-.5c-.87-.334-1.534-.768-1.995-1.302l1.65-2.203c.733.823 1.7 1.235 2.9 1.235 1.747 0 2.62-.853 2.62-2.56v-.377c-.756.793-1.711 1.19-2.865 1.19-1.544 0-2.792-.562-3.743-1.686C6.476 14.674 6 13.17 6 11.286v-.134zm4 .5c0 1.03.191 1.846.573 2.447.382.6.917.901 1.605.901.833 0 1.44-.283 1.822-.849v-5.29C13.626 8.286 13.026 8 12.2 8c-.687 0-1.226.312-1.615.936-.39.624-.585 1.53-.585 2.715zm13.565-6.434L23.69 6.6C24.532 5.534 25.694 5 27.175 5c1.272 0 2.221.367 2.85 1.1.627.733.952 1.836.975 3.31V17h-3.813V9.563c0-.596-.124-1.033-.373-1.313-.248-.279-.7-.419-1.353-.419-.745 0-1.298.283-1.659.85V17H20V5.218h3.565zM37 17h-4V5h4v12zM33 2c0-.585.185-1.065.556-1.439C33.926.187 34.408 0 35 0s1.073.187 1.444.561C36.814.935 37 1.415 37 2c0 .585-.185 1.065-.556 1.439-.37.374-.852.561-1.444.561s-1.073-.187-1.444-.561C33.186 3.065 33 2.585 33 2zm11.689 0v2.943h2.131v2.56H44.69v5.416c0 .445.087.755.263.93.176.175.523.263 1.042.263.4 0 .735-.022 1.006-.066v2.637a8.099 8.099 0 0 1-2.275.317c-1.39 0-2.416-.299-3.078-.897-.663-.598-.994-1.506-.994-2.724V7.503H39v-2.56h1.653V2h4.036zm8.91 16c-1.967 0-3.559-.574-4.775-1.72C47.608 15.131 47 13.64 47 11.8v-.324c0-1.282.243-2.414.729-3.395a5.259 5.259 0 0 1 2.126-2.277C50.787 5.268 51.892 5 53.172 5c1.8 0 3.222.546 4.264 1.64C58.48 7.731 59 9.255 59 11.21v1.518h-7.937c.142.703.454 1.255.936 1.657.482.402 1.106.603 1.872.603 1.263 0 2.25-.433 2.961-1.298l1.824 2.109c-.497.672-1.202 1.206-2.114 1.604a7.283 7.283 0 0 1-2.944.597zM53.07 8c-1.16 0-1.85.667-2.07 2h3.999v-.265c.016-.551-.145-.978-.482-1.28C54.18 8.15 53.697 8 53.07 8z"/>
</svg>
