<svg xmlns="http://www.w3.org/2000/svg" width="85" height="33" viewBox="0 0 85 33">
    <defs>
        <linearGradient id="a" x1="50%" x2="50%" y1="0%" y2="100%">
            <stop offset="0%" stop-color="#F6B352"/>
            <stop offset="33.527%" stop-color="#F6A454"/>
            <stop offset="100%" stop-color="#F68657"/>
        </linearGradient>
        <linearGradient id="b" x1="50%" x2="50%" y1="0%" y2="100%">
            <stop offset="0%" stop-color="#F6B352"/>
            <stop offset="59.018%" stop-color="#F69955"/>
            <stop offset="100%" stop-color="#F68657"/>
        </linearGradient>
        <linearGradient id="c" x1="50%" x2="50%" y1="0%" y2="100%">
            <stop offset="0%" stop-color="#F6B352"/>
            <stop offset="100%" stop-color="#F68657"/>
        </linearGradient>
    </defs>
    <g fill="none" fill-rule="evenodd">
        <path fill="url(#a)" d="M4.437.633h-.01a5.567 5.567 0 0 0-.545.062 5.983 5.983 0 0 0-.815.213c-.089.034-.177.067-.264.104-.089.04-.175.076-.26.12-.068.033-.134.07-.2.107a5.647 5.647 0 0 0-.39.242c-.096.067-.19.141-.283.21-.087.077-.175.154-.26.233a8.942 8.942 0 0 0-.245.248 4.952 4.952 0 0 0-.479.636c-.04.062-.074.127-.112.19a3.892 3.892 0 0 0-.313.716c-.028.08-.053.163-.075.246l-.02.08c-.025.09-.042.184-.06.276 0 .007-.003.01-.003.017a4.27 4.27 0 0 0-.06.6c0 .01 0 .016-.003.026 0 .034-.004.067-.004.101v23.148c0 .589.12 1.15.344 1.662.06.134.123.267.194.396.038.064.072.127.112.19l.031.048c.072.11.146.217.227.322.069.091.146.18.22.266.08.083.162.168.247.246.084.08.172.157.26.234.091.07.186.143.281.21.127.087.257.167.39.244.067.036.133.072.2.106.07.033.141.067.212.098.07.03.144.06.214.086.067.026.137.05.208.073.077.026.157.05.235.07.043.013.081.022.123.033.106.029.215.05.32.07.067.01.134.024.2.03.043.006.085.013.13.016.042.004.085.008.13.01.032.004.065.004.095.007.026 0 .046.004.07.004l.078.003c.071.003.14.006.211.006.028 0 .06 0 .089-.003.027 0 .06 0 .09-.003.065 0 .13-.007.194-.01.084-.006.166-.017.249-.03.075-.006.148-.02.222-.033a5.182 5.182 0 0 0 1.08-.33 5.268 5.268 0 0 0 .697-.381c.044-.03.086-.056.128-.09.18-.126.353-.266.514-.42l12.21-11.572a4.3 4.3 0 0 0 1.37-3.135 4.299 4.299 0 0 0-1.37-3.134L8.03 1.924a4.688 4.688 0 0 0-.514-.42 5.258 5.258 0 0 0-.682-.402l-.144-.067a4.95 4.95 0 0 0-.53-.196 5.39 5.39 0 0 0-.549-.134A5.019 5.019 0 0 0 4.72.626a6.4 6.4 0 0 0-.282.007" transform="translate(.56 -.04)"/>
        <path fill="url(#b)" d="M.036 7.854L.2 7.71c.09-.07.186-.143.28-.21.128-.086.257-.166.39-.243.068-.037.134-.073.202-.106.084-.044.172-.08.26-.12a6.7 6.7 0 0 1 .263-.103c.177-.06.356-.113.539-.157.09-.02.182-.04.277-.057.183-.03.362-.05.546-.063.003.003.006 0 .01 0 .094-.003.19-.007.28-.007a5.021 5.021 0 0 1 1.443.214c.178.056.358.12.53.197.05.023.095.042.144.066a5.242 5.242 0 0 1 .683.403c.178.126.352.267.513.42l12.21 11.572c.3.284.552.597.753.93L8.032 31.338a4.578 4.578 0 0 1-.515.42c-.042.034-.084.06-.129.09a5.268 5.268 0 0 1-.697.382 5.182 5.182 0 0 1-1.079.33c-.074.012-.147.026-.222.031a2.783 2.783 0 0 1-.25.031c-.062.003-.128.01-.194.01-.03.003-.062.003-.09.003a.831.831 0 0 1-.088.003c-.07 0-.14-.003-.21-.006l-.079-.003c-.024 0-.044-.004-.07-.004-.03-.003-.063-.003-.095-.007-.045-.002-.088-.006-.13-.01-.045-.003-.087-.01-.13-.017-.066-.005-.133-.019-.2-.03a3.822 3.822 0 0 1-.32-.069c-.042-.01-.08-.02-.123-.033a3.119 3.119 0 0 1-.235-.07 5.305 5.305 0 0 1-.634-.256l-.2-.107a6.105 6.105 0 0 1-.39-.244 9.205 9.205 0 0 1-.282-.21c-.087-.077-.175-.153-.26-.234a6.687 6.687 0 0 1-.245-.246c-.075-.086-.152-.175-.221-.266a5.458 5.458 0 0 1-.258-.37c-.04-.063-.074-.126-.112-.19a5.642 5.642 0 0 1-.194-.396 4.127 4.127 0 0 1-.344-1.662V7.854z" opacity=".676" style="mix-blend-mode:screen" transform="translate(.56 -.04)"/>
        <path fill="url(#c)" d="M.036 13.496a6.138 6.138 0 0 1 .334-.185c.084-.043.172-.079.26-.12.088-.036.176-.069.263-.103a6.01 6.01 0 0 1 .539-.157 5.856 5.856 0 0 1 .822-.12c.004.005.007 0 .011 0a5.017 5.017 0 0 1 1.721.207c.18.057.36.12.532.197l.144.067c.19.093.373.196.553.313.046.03.087.056.129.09.18.126.351.266.514.42l10.179 9.646-8.006 7.587a4.578 4.578 0 0 1-.514.42c-.042.034-.084.06-.129.09a5.268 5.268 0 0 1-.697.382 5.182 5.182 0 0 1-1.079.33c-.074.012-.147.026-.222.031a2.783 2.783 0 0 1-.25.031c-.062.003-.128.01-.194.01-.03.003-.062.003-.09.003a.831.831 0 0 1-.088.003c-.07 0-.14-.003-.21-.006l-.079-.003c-.024 0-.044-.004-.07-.004-.03-.003-.063-.003-.095-.007-.045-.002-.088-.006-.13-.01-.045-.003-.087-.01-.13-.017-.066-.005-.133-.019-.2-.03a3.822 3.822 0 0 1-.32-.069c-.042-.01-.08-.02-.123-.033a3.119 3.119 0 0 1-.235-.07 5.305 5.305 0 0 1-.634-.256l-.2-.107a6.105 6.105 0 0 1-.39-.244 9.205 9.205 0 0 1-.282-.21c-.087-.077-.175-.153-.26-.234a6.687 6.687 0 0 1-.245-.246c-.075-.086-.152-.175-.221-.266a5.458 5.458 0 0 1-.258-.37c-.04-.063-.074-.126-.112-.19a5.642 5.642 0 0 1-.194-.396 4.127 4.127 0 0 1-.344-1.662V13.496z" style="mix-blend-mode:screen" transform="translate(.56 -.04)"/>
        <g fill="#FFFDF1">
            <path d="M29.446 25.422h-3.85v-12.2h3.85v12.2zm-4.078-15.346c0-.541.197-.985.592-1.33.395-.346.908-.52 1.538-.52s1.143.174 1.538.52c.395.345.592.789.592 1.33s-.197.985-.592 1.33c-.395.346-.908.52-1.538.52s-1.143-.174-1.538-.52c-.395-.345-.592-.789-.592-1.33zm6.023 9.156c0-1.233.205-2.323.615-3.27.41-.947.999-1.678 1.766-2.193.767-.515 1.659-.773 2.677-.773 1.283 0 2.285.429 3.007 1.286l.136-1.06h3.486V24.96c0 1.075-.253 2.009-.758 2.802-.505.793-1.236 1.402-2.192 1.826-.957.425-2.066.637-3.326.637-.904 0-1.78-.169-2.626-.507-.847-.338-1.494-.778-1.942-1.32l1.606-2.232c.714.835 1.655 1.252 2.825 1.252 1.7 0 2.551-.865 2.551-2.594v-.383c-.736.804-1.666 1.207-2.79 1.207-1.504 0-2.719-.57-3.645-1.709-.927-1.139-1.39-2.663-1.39-4.572v-.135zm3.85.237c0 1 .19 1.79.57 2.373.38.583.91.874 1.594.874.828 0 1.432-.274 1.811-.823v-5.13c-.372-.557-.968-.835-1.788-.835-.683 0-1.219.303-1.606.908s-.58 1.482-.58 2.633zm13.575-6.247l.126 1.432c.85-1.105 2.023-1.658 3.52-1.658 1.283 0 2.241.38 2.875 1.14.634.758.963 1.901.986 3.427v7.86h-3.85V17.72c0-.617-.126-1.07-.376-1.359-.25-.29-.707-.434-1.367-.434-.752 0-1.31.293-1.675.88v8.614h-3.838v-12.2h3.6zm13.712 12.2h-3.85v-12.2h3.85v12.2zM58.45 10.076c0-.541.198-.985.593-1.33.394-.346.907-.52 1.537-.52.63 0 1.143.174 1.538.52.395.345.592.789.592 1.33s-.197.985-.592 1.33c-.395.346-.907.52-1.538.52-.63 0-1.143-.174-1.537-.52-.395-.345-.593-.789-.593-1.33zm10.944.113v3.033h2.028v2.638h-2.028v5.582c0 .458.084.778.25.958.168.18.498.27.992.27.38 0 .698-.022.956-.067v2.718a7.15 7.15 0 0 1-2.164.327c-1.321 0-2.297-.309-2.927-.925-.63-.616-.945-1.552-.945-2.808V15.86h-1.572v-2.638h1.572v-3.033h3.838zm9.532 15.459c-1.891 0-3.421-.559-4.59-1.675-1.17-1.116-1.755-2.569-1.755-4.358V19.3c0-1.247.234-2.349.7-3.303a5.094 5.094 0 0 1 2.045-2.216c.896-.522 1.96-.784 3.19-.784 1.73 0 3.098.532 4.1 1.596 1.002 1.064 1.504 2.546 1.504 4.448v1.477h-7.632c.137.684.437 1.222.9 1.613.463.39 1.063.586 1.8.586 1.215 0 2.164-.421 2.847-1.263l1.754 2.052c-.478.654-1.156 1.175-2.033 1.562a6.93 6.93 0 0 1-2.83.58zm-.433-9.72c-1.124 0-1.792.737-2.005 2.21h3.873v-.293c.015-.609-.14-1.08-.467-1.415-.327-.335-.794-.502-1.401-.502z"/>
        </g>
    </g>
</svg>
