<svg xmlns="http://www.w3.org/2000/svg" width="16" height="25" viewBox="0 0 16 25">
    <path fill="#8C8C8C" fill-rule="evenodd" d="M8 .823c-3.567 0-6.47 3.074-6.47 6.853v3.914c0 .045-.051.12-.092.134-.35.124-.634.23-.894.337-.31.127-.544.49-.544.847V21.9c0 .354.232.718.54.848A19.176 19.176 0 0 0 8 24.257c2.565 0 5.075-.507 7.46-1.508.308-.13.54-.494.54-.848v-8.993c0-.356-.234-.72-.544-.847-.26-.106-.544-.214-.894-.337-.04-.014-.092-.09-.092-.134V7.676C14.47 3.897 11.567.823 8 .823zM6.4 15.47c0-1.03.716-1.864 1.6-1.864.884 0 1.6.834 1.6 1.864 0 .683-.33 1.255-.8 1.579v3.082c0 .515-.358.932-.8.932-.442 0-.8-.417-.8-.932v-3.082c-.47-.324-.8-.896-.8-1.579zm6.4-8.257v3.198a20.364 20.364 0 0 0-8.533 0V7.211a4.267 4.267 0 0 1 8.533 0z"/>
</svg>
