<svg xmlns="http://www.w3.org/2000/svg" width="78" height="78" viewBox="0 0 78 78">
    <defs>
        <linearGradient id="a" x1="50%" x2="50%" y1="0%" y2="98.912%">
            <stop offset="0%" stop-color="#FFF"/>
            <stop offset="100%" stop-color="#FFF" stop-opacity=".4"/>
        </linearGradient>
    </defs>
    <path fill="url(#a)" fill-rule="evenodd" d="M5176.873 182.85l5.838-5.5-.007-.006 4.277-4.036a1.363 1.363 0 0 0-.003-.005l.894-.844a5.226 5.226 0 0 0 1.683-3.84c0-1.456-.61-2.847-1.683-3.838l-15.05-14.19a5.677 5.677 0 0 0-.61-.517l-.159-.109a6.5 6.5 0 0 0-.677-.382l-.177-.08a6.218 6.218 0 0 0-.653-.242 6.739 6.739 0 0 0-.677-.164 6.21 6.21 0 0 0-1.098-.097h-.36a8.418 8.418 0 0 0-.67.079l-.343.067a7.658 7.658 0 0 0-.665.194l-.323.127-.317.146-.244.134a7.899 7.899 0 0 0-.482.297l-.348.255-.323.285-.305.304c-.092.109-.159.176-.275.327-.116.152-.22.298-.317.456l-.177.254a5.82 5.82 0 0 0-.238.486c-.055.134-.11.297-.146.395-.037.097-.092.2-.092.303v.097c-.03.11-.073.225-.073.34a5.17 5.17 0 0 0-.073.765v28.508a5.034 5.034 0 0 0 .427 2.04c.073.163.153.327.238.485l.14.23c.104.158.232.347.318.456.085.11.183.224.274.328l.305.303.317.285.324.25c.158.102.317.206.482.297l.244.133.262.122.262.103.256.09.312.134.152.043c.134.036.268.085.397.085l.244.036H5169.29l.305-.036.274-.043c.229-.043.455-.097.677-.164.222-.068.44-.15.653-.242l.177-.08.057-.027a6.5 6.5 0 0 0 .644-.367l.16-.11c.214-.157.418-.329.61-.515l4.026-3.804zM5173 207c-21.54 0-39-17.46-39-39s17.46-39 39-39 39 17.46 39 39-17.46 39-39 39z" transform="translate(-5134 -129)"/>
</svg>
